<?xml version="1.0" encoding="UTF-8"?>
<!DOCTYPE svg PUBLIC "-//W3C//DTD SVG 1.1//EN" "http://www.w3.org/Graphics/SVG/1.1/DTD/svg11.dtd">
<svg xmlns="http://www.w3.org/2000/svg" version="1.1" width="256px" height="256px" style="shape-rendering:geometricPrecision; text-rendering:geometricPrecision; image-rendering:optimizeQuality; fill-rule:evenodd; clip-rule:evenodd" xmlns:xlink="http://www.w3.org/1999/xlink">
<g><path style="opacity:0.988" fill="#fefffe" d="M 84.5,-0.5 C 89.5,-0.5 94.5,-0.5 99.5,-0.5C 119.64,3.45835 134.14,14.7917 143,33.5C 165.68,26.5142 183.014,33.1809 195,53.5C 196.145,56.4318 196.978,59.4318 197.5,62.5C 227.202,59.5614 246.535,72.2281 255.5,100.5C 255.5,107.167 255.5,113.833 255.5,120.5C 250.234,141.598 236.9,154.431 215.5,159C 155.5,159.667 95.5,159.667 35.5,159C 16.7532,154.418 4.75319,142.918 -0.5,124.5C -0.5,118.167 -0.5,111.833 -0.5,105.5C 5.7173,84.6281 19.7173,72.6281 41.5,69.5C 34.4367,44.1898 41.4367,23.6898 62.5,8C 69.4613,3.85231 76.7946,1.01898 84.5,-0.5 Z"/></g>
</svg>
